<?xml version="1.0" encoding="UTF-8"?>
<svg viewBox="0 0 401.25 351.25" xmlns="http://www.w3.org/2000/svg">
 <g transform="matrix(1.25,0,0,-1.25,0,351.25)">
  <g transform="scale(.24)">
   <path d="m606.36 1131.1c23.7 34.8 56.7 49.5 95.7 27 10.8-7.8 18.3-16.8 25.8-27.9l597-1027.8c8.7-18 12.9-34.2 8.1-54.301-10.8-31.801-39.6-45-71.7-45.898h-1181.1c-50.098 1.1992-87.898 31.199-74.398 85.199l3.6016 9.3008 3.8984 7.7967 593.1 1026.6" fill="#fff" fill-rule="evenodd"/>
   <path d="m606.36 1131.1c23.7 34.8 56.7 49.5 95.7 27 10.8-7.8 18.3-16.8 25.8-27.9l597-1027.8c8.7-18 12.9-34.2 8.1-54.301-10.8-31.801-39.6-45-71.7-45.898h-1181.1c-50.098 1.1992-87.898 31.199-74.398 85.199l3.6016 9.3008 3.8984 7.7967 593.1 1026.6z" fill="none" stroke="#231f20" stroke-miterlimit="2.6131" stroke-width="2.4"/>
   <path d="m34.258 93.438 592.2 1025.1c10.199 18 25.5 27 40.5 27s30.301-9.9 40.801-27.9l596.1-1026.6c21-36-2.1-65.098-43.2-65.098h-1180.2c-47.098 0-66.898 31.5-46.199 67.5" fill="#231f20" fill-rule="evenodd"/>
   <path d="m1248.4 83.836-577.5 980.4-580.5-980.4h1158" fill="#fbc707" fill-rule="evenodd"/>
   <path d="m618.66 873.14-138.9-481.8 168.9 84-6.898-180-46.5 8.102 43.199-166.8 96.301 142.8-46.199 7.8 93.597 330.9-221.4-124.5 168.3 379.5h-110.4" fill="#231f20" fill-rule="evenodd"/>
  </g>
 </g>
</svg>
